<svg xmlns="http://www.w3.org/2000/svg" viewBox="0 0 25.89 48.43"><defs><style>.cls-1{fill:#fff;}</style></defs><g id="圖層_2" data-name="圖層 2"><g id="圖層_1-2" data-name="圖層 1"><path class="cls-1" d="M21.49,30.81a9.5,9.5,0,0,1-.95-.6c.4-.36.7-.61,1-.86a7.7,7.7,0,0,0-1.25-12.74,14,14,0,0,0-3.93-1.41,40.43,40.43,0,0,0-13.53-.12,16.44,16.44,0,0,0-1.92.49V47.42A7.17,7.17,0,0,0,2.6,48a91.49,91.49,0,0,0,10.84.38,23.39,23.39,0,0,0,7.82-2c3.33-1.48,4.6-4.56,4.63-8.13A7.51,7.51,0,0,0,21.49,30.81ZM6.92,19.89c3-.31,5.79-.54,8.57.45a3.58,3.58,0,0,1,2.68,3.71,3.57,3.57,0,0,1-2.79,3.62,19.63,19.63,0,0,1-8.46.39ZM17.15,42.11a14.2,14.2,0,0,1-4.28,1c-1.87.17-3.76,0-5.93,0V33.35a24.44,24.44,0,0,1,9.8.59,3.92,3.92,0,0,1,2.83,3.69A4.11,4.11,0,0,1,17.15,42.11Z"/><path class="cls-1" d="M22.59,0H0V3.63H22.59Z"/></g></g></svg>